<svg xmlns="http://www.w3.org/2000/svg" enable-background="new 0 0 82 82" viewBox="0 0 82 82"><path fill="#4B4A51" d="M41.3,1H22.5c-1.7,0-3.1,1.4-3.1,3.1v37.5c0,1.7,1.4,3.1,3.1,3.1h18.7c1.7,0,3.1-1.4,3.1-3.1V4.1C44.3,2.4,43,1,41.3,1z"/><path fill="#F4F2F3" d="M43,4.1v37.5c0,1-0.8,1.8-1.8,1.8H22.5c-1,0-1.8-0.8-1.8-1.8V4.1c0-1,0.8-1.8,1.8-1.8h4.3c-0.1,0.1-0.1,0.3-0.1,0.5c0,0.7,0.6,1.3,1.3,1.3h7.8c0.7,0,1.3-0.6,1.3-1.3c0-0.2,0-0.3-0.1-0.5h4.3C42.2,2.3,43,3.1,43,4.1z"/><path fill="#1E1D26" d="M34.4,2.3h-3.1c-0.3,0-0.5,0.2-0.5,0.5c0,0.3,0.2,0.5,0.5,0.5h3.1c0.3,0,0.5-0.2,0.5-0.5C34.9,2.5,34.7,2.3,34.4,2.3z"/><circle cx="29.3" cy="2.8" r=".5" fill="#1E1D26"/><path fill="#D8D8D8" d="M41.6,15c0,1.9-1.5,3.5-3.5,3.5c-1.6,0-11.6,0-13.1,0c-1.7,0-3-1.4-3-3s1.4-3,3-3c0.4,0,0.7,0.1,1,0.2c0.5-1.2,1.8-1.9,3.2-1.5c0.5-1.7,2.1-2.9,3.9-2.9c2,0,3.7,1.5,4,3.4c0.3-0.1,0.6-0.1,1-0.1C40.1,11.6,41.6,13.1,41.6,15z"/><path fill="#6CB3E1" d="M36.7,22.2L31.9,27l-4.8-4.8h2.3v-6.1c0-0.4,0.3-0.7,0.7-0.7h3.5c0.4,0,0.7,0.3,0.7,0.7v6.1H36.7z"/><path fill="#E8E6E7" d="M41.6,30.4c0,0.3-0.1,0.6-0.3,0.8c-0.2,0.2-0.5,0.3-0.8,0.3H23.3c-0.7,0-1.2-0.5-1.2-1.2c0-0.3,0.1-0.6,0.3-0.8c0.2-0.2,0.5-0.3,0.8-0.3h17.2C41.1,29.2,41.6,29.7,41.6,30.4z"/><path fill="#80CE7F" d="M34.5,29.2H23.3c-0.3,0-0.6,0.1-0.8,0.3c-0.2,0.2-0.3,0.5-0.3,0.8c0,0.6,0.5,1.2,1.2,1.2h11.3V29.2z"/><path fill="#F96C5A" d="M41.6,36.9c0,1.3-1,2.3-2.3,2.3H24.4c-1.3,0-2.3-1-2.3-2.3c0-1.3,1-2.3,2.3-2.3h14.9c0.6,0,1.2,0.3,1.6,0.7C41.4,35.7,41.6,36.3,41.6,36.9z"/><text fill="#FFF" font-family="'Montserrat-Bold'" font-size="2.624" transform="translate(23.556 37.91)">download</text><path fill="#FFBA8D" d="M56.8,65.3l-13.4,7.6c-3.9-10.9-12.3-7.9-15-17c-0.5-1.6-0.9-2.8-1.3-3.8c-0.5-1.1-1-2-1.8-3c-0.2-0.2-0.4-0.4-0.6-0.6c-1.3-1.4-2.6-2-3.1-2.4c-0.3-0.2-0.4-0.4-0.2-0.7c0,0,0.6-0.9,3.9-0.7c4.2,0.2,4.1,4.4,7.8,7.3c0.2,0.3,1.3,0.7,2.2,0.1c1.2-0.8,1.1-3.1,0.8-4.4c-0.6-2.5-1.4-6-2-8.6c-1.7-7.9-3.4-16.4-3-18.3c0.1-0.4,0.3-0.8,0.7-1.1c0.8-0.4,1.8-0.2,2.2,0.6l5.2,15.8c2.7-1.7,4.9-3.5,6.7-1.4c0.4,0.4,0.8,1.1,1.1,1.9c0.7-0.6,1.3-1,1.9-1.1c1.5-0.3,2.7,0.9,3.6,3.4l0.6-0.2c1.2-0.5,2.7,0.2,3,1.5c0,0,0,0,0,0C59.2,51.9,53,60.1,56.8,65.3z"/><path fill="#E8E6E7" d="M59.5,68l-1.4-2.5c-0.3-0.5-0.9-0.6-1.3-0.4l-13.1,7.5c-0.5,0.3-0.6,0.9-0.4,1.3l1.9,3.4l14-8C59.6,69.1,59.8,68.5,59.5,68z"/><path fill="#60C25F" d="M42.9,75.9l2.5,4.4c0.4,0.6,1.2,0.9,1.8,0.5l14.7-8.4c0.6-0.4,0.9-1.2,0.5-1.8l-2.5-4.4c-0.4-0.6-1.2-0.9-1.8-0.5l-14.7,8.4C42.7,74.4,42.5,75.3,42.9,75.9z"/><path fill="#F7CCB5" d="M34 21.6c0 .3-.2.6-.5.7l-1.3.3c-.3.1-.6-.2-.7-.5l-.1-.6c0 0 0-.1 0-.1 0-.7.4-1.3 1.1-1.3.7-.1 1.3.4 1.4 1.2L34 21.6zM25.4 48.9l-.1.2c-.2-.2-.4-.4-.6-.6-1.3-1.4-2.6-2-3.1-2.4 1.1-.2 2.5 0 3.8 1.3C25.7 47.7 25.8 48.4 25.4 48.9z"/></svg>