<svg xmlns="http://www.w3.org/2000/svg" xmlns:xlink="http://www.w3.org/1999/xlink" width="48" height="48"><defs><linearGradient id="b" x1="949.87" x2="974.39" y1="518.014" y2="544.657" gradientTransform="translate(-1454.353 211.343) scale(1.53785)" gradientUnits="userSpaceOnUse" xlink:href="#a"/><linearGradient id="a"><stop offset="0" stop-color="#24f7bc"/><stop offset="1" stop-color="#24c4fc"/></linearGradient></defs><g transform="translate(0 -1004.362)"><rect width="48" height="48" y="1004.362" fill="url(#b)" rx="10.144" ry="10.144"/><path style="line-height:normal;text-indent:0;text-align:start;text-decoration-line:none;text-decoration-style:solid;text-decoration-color:#000;text-transform:none;block-progression:tb;isolation:auto;mix-blend-mode:normal" fill="#fff" d="M14.5 1014.362a.5.5 0 0 0-.5.5v27a.5.5 0 0 0 .5.5h15a.5.5 0 0 0 .5-.5v-4.976l.025.5.5-.025.715-.035.051-.01.266-.041.494-.074-.15-.99-.495.081-.234.035-.697.035-.475.023v-1.027H31.467a.5.5 0 0 0 .5-.5v-.69c.218-.07.428-.158.633-.261l.478.482a.5.5 0 0 0 .711 0l1.274-1.285a.5.5 0 0 0 0-.705l-.483-.486a4.58 4.58 0 0 0 .264-.645h.68a.5.5 0 0 0 .5-.5v-1.818a.5.5 0 0 0-.5-.5h-.68a4.588 4.588 0 0 0-.264-.645l.483-.486a.5.5 0 0 0 0-.705l-1.274-1.285a.5.5 0 0 0-.71 0l-.481.484a4.534 4.534 0 0 0-.631-.264v-.69a.5.5 0 0 0-.5-.5H30v-1.024l.475.022.697.035.248.039.494.076.152-.99-.496-.075-.279-.043-.05-.01-.716-.035-.525-.024V1014.858a.5.5 0 0 0-.5-.5h-15zm20.33.98c-.093 0-.038.188-.07.266l-.073.725c.259.034.524.034.778.09.194.053.383.117.553.227.121.066.243.13.365.197l.478-.88c-.323-.163-.625-.38-.982-.464-.335-.129-.698-.113-1.049-.162zm-19.83.02h14v3H15v-3zm18.451.402-.385.32c-.228.166-.393.396-.562.618-.14.246-.272.497-.408.746l.877.476c.141-.243.256-.503.416-.734a2.08 2.08 0 0 1 .445-.444l.254-.21-.637-.772zm-13.451.598v1h4v-1h-4zm17.725.7-.954.298c.076.28.204.55.21.845.03.2-.008.403-.036.6a2.168 2.168 0 0 1-.242.59c-.086.104-.083.18.057.217l.744.404c.137-.255.295-.503.357-.79.11-.286.116-.596.139-.897-.032-.288-.038-.584-.146-.856l-.13-.41zm-4.745 1.497-.955.297c.108.311.165.645.346.926.154.334.426.587.649.875.061.107.09.05.226-.047l.615-.508c-.18-.23-.387-.441-.548-.684a1.884 1.884 0 0 1-.235-.545l-.098-.316zm-17.98.803h14v17H15v-17zm21.229.703c-.16.048-.318.099-.477.146-.202.068-.404.132-.62.135-.219.032-.438-.025-.657-.037l-.102.994c.305.023.61.091.914.035.339-.01.652-.142.973-.234.072-.045.253-.033.256-.115l-.287-.924zm-15.706 1.297c-1.65 0-3 1.349-3 3a3.003 3.003 0 0 0 1.477 2.576v.96h-.71c-.747 0-1.29.673-1.29 1.409v.082a.5.5 0 0 0 .006.078 5.043 5.043 0 0 0 2.494 4.203c1.548.9 3.46.9 5.008 0a5.044 5.044 0 0 0 2.5-4.352v-.915c0-.736-.544-1.407-1.29-1.407H22v-.03a3.002 3.002 0 0 0 1.523-2.604c0-1.651-1.349-3-3-3zm0 1c1.11 0 2 .89 2 2 0 .488-.218.907-.523 1.261v-.85l-.002-.01c0-.094-.013-.185-.033-.27-.008-.034-.02-.065-.03-.097-.013-.04-.025-.08-.042-.117a1.448 1.448 0 0 0-.377-.527c-.181-.158-.428-.197-.664-.256-.007 0-.013-.01-.02-.01a.5.5 0 0 0-.002 0 .5.5 0 0 0-.033-.027.5.5 0 0 0-.006 0 .5.5 0 0 0-.08-.05.5.5 0 0 0-.006 0 .5.5 0 0 0-.04-.015.5.5 0 0 0-.007 0 .5.5 0 0 0-.098-.022.5.5 0 0 0-.06-.01c-.77 0-1.5.573-1.5 1.408v.809c-.28-.348-.476-.752-.477-1.217 0-1.11.89-2 2-2zm12.65.47-.433.903.45.216.408.198.427.258.426.26.52-.856-.428-.26-.447-.271-.043-.024-.428-.205-.451-.22zm-12.677 1.532a.5.5 0 0 0 .002 0 .5.5 0 0 0 .002 0c.229 0 .5.238.5.408v2.723a.5.5 0 0 0 .5.5h4.219c.128 0 .289.136.289.406v.916a4.041 4.041 0 0 1-2.004 3.488 3.97 3.97 0 0 1-4 0 4.041 4.041 0 0 1-2.002-3.414.5.5 0 0 0-.012-.1l.01.035v-.02c0-.27.162-.41.29-.41h1.21a.5.5 0 0 0 .5-.5v-3.627l.002-.01c.007-.152.222-.343.43-.382.021 0 .044-.014.064-.014zm15.326.215-.74.673.336.37.103.115.01.01.354.476.074.122.26.427.855-.52-.26-.427-.082-.135-.027-.04-.402-.54-.031-.035-.114-.125-.336-.37zm-5.822.779h.967v.515a.5.5 0 0 0 .388.489c.39.09.761.244 1.1.459a.5.5 0 0 0 .621-.07l.358-.36.57.576-.36.364a.5.5 0 0 0-.07.615c.212.343.365.719.453 1.113a.5.5 0 0 0 .487.39h.51v.82h-.508a.5.5 0 0 0-.487.388 3.62 3.62 0 0 1-.457 1.113.5.5 0 0 0 .07.615l.362.366-.57.576-.356-.358a.5.5 0 0 0-.621-.072c-.34.214-.712.369-1.102.457a.5.5 0 0 0-.388.489v.515H30v-2.504c1.099 0 2-.9 2-2 0-1.098-.901-2-2-2v-2.504zm7.574 1.928-.969.251.125.485.137.533.06.395.077.494.988-.15-.076-.495-.064-.422-.01-.053-.143-.554-.125-.485zM30 1028.861c.558 0 1 .441 1 1 0 .558-.442 1-1 1v-2zm7.002 1.431-.076.496-.059.381-.14.547-.123.485.966.25.125-.485.147-.57.01-.051.062-.406.076-.495-.988-.152zm-.791 2.672-.258.428-.066.11-.356.476-.008.01-.115.125-.336.371.74.672.336-.37.123-.136.032-.035.402-.539.027-.041.075-.123.26-.428-.856-.52zm-1.772 2.1-.427.261-.414.25-.42.204-.451.216.433.903.451-.217.442-.213.043-.025.435-.266.428-.26-.52-.853zM15 1037.362h14v4H15v-4zm7 1c-.546 0-1 .453-1 1 0 .546.454 1 1 1s1-.454 1-1c0-.547-.454-1-1-1z" color="#000" font-family="sans-serif" font-weight="400" overflow="visible"/></g></svg>