<svg xmlns="http://www.w3.org/2000/svg" viewBox="0 0 64 64"><rect width="56" height="45" y="5" fill="#00bebd" rx="3"/><path fill="#fff" d="M54 8v36H2V8a1 1 0 0 1 1-1h50a1 1 0 0 1 1 1Z"/><path fill="#00aaa8" d="M35 58H21l1-8h12l1 8z"/><path fill="#50d9d7" d="M39 59H17a1 1 0 0 1 0-2h22a1 1 0 0 1 0 2zM54 8v3H2V8a1 1 0 0 1 1-1h50a1 1 0 0 1 1 1z"/><path fill="#93e6e5" d="M15 7h13a3 3 0 0 1 3 3v1H15V7Z"/><path fill="#fff" d="M3 7h12a3 3 0 0 1 3 3v2H2V8a1 1 0 0 1 1-1Z"/><path fill="#00aaa8" d="M56 23v24a3 3 0 0 1-3 3H40v-6h14V23Z"/><path fill="#f3f3f3" d="M54 23v21H40V29a6 6 0 0 1 6-6Z"/><rect width="22" height="34" x="42" y="25" fill="#ffac00" rx="4"/><path fill="#fff" d="M62 29v26a2 2 0 0 1-2 2H46a2 2 0 0 1-2-2V29a2 2 0 0 1 2-2c1.43 0 2-.11 2.28.55l.44.9a1 1 0 0 0 .9.55h6.76a1 1 0 0 0 .9-.55l.44-.9a1 1 0 0 1 .9-.55H60a2 2 0 0 1 2 2Z"/><path fill="#f3f3f3" d="M59 55H47a1 1 0 0 1 0-2h12a1 1 0 0 1 0 2Z"/><path fill="#ffac00" d="M14 22h-3a1 1 0 0 1 0-2h3a1 1 0 0 1 0 2Z"/><path fill="none" stroke="#ffac00" stroke-linecap="round" stroke-linejoin="round" stroke-width="2" d="M20 15a13.44 13.44 0 0 0 0 12"/><path fill="#d9d9d9" d="M5 31h30v2H5zM5 35h23v2H5zM5 39h16v2H5zM42 14h8v2h-8z"/><path fill="#ffac00" d="M49 39.41c1.23 1.23 1.44 1.59 2 1.59a1 1 0 0 0 .71-1.71L50.41 38l1.3-1.29a1 1 0 0 0-1.42-1.42L49 36.59l-1.29-1.3a1 1 0 0 0-1.42 1.42l1.3 1.29-1.3 1.29A1 1 0 0 0 47 41c.55 0 .69-.27 2-1.59zM58.41 38l1.3-1.29a1 1 0 0 0-1.42-1.42L57 36.59l-1.29-1.3a1 1 0 0 0-1.42 1.42l1.3 1.29-1.3 1.29a1 1 0 0 0 1.42 1.42l1.29-1.3 1.29 1.3a1 1 0 0 0 1.42-1.42zm.1 8.14a10.69 10.69 0 0 0-11 0 1 1 0 0 0 1 1.72 8.72 8.72 0 0 1 9 0 1 1 0 0 0 1-1.72zM8.91 15.5l.8-.79a1 1 0 0 0-1.42-1.42l-.79.8-.79-.8a1 1 0 0 0-1.42 1.42l.8.79-.8.79a1 1 0 0 0 1.42 1.42l.79-.8.79.8a1 1 0 0 0 1.42-1.42zm-.62 8.79-.79.8-.79-.8a1 1 0 0 0-1.42 1.42l.8.79-.8.79a1 1 0 0 0 1.42 1.42l.79-.8.79.8a1 1 0 0 0 1.42-1.42l-.8-.79.8-.79a1 1 0 0 0-1.42-1.42z"/></svg>