<?xml version="1.0" encoding="utf-8"?>
<!-- Generator: Adobe Illustrator 26.0.3, SVG Export Plug-In . SVG Version: 6.00 Build 0)  -->
<svg version="1.0" id="katman_1" xmlns="http://www.w3.org/2000/svg" xmlns:xlink="http://www.w3.org/1999/xlink" x="0px" y="0px"
	 viewBox="0 0 600 450" style="enable-background:new 0 0 600 450;" xml:space="preserve">
<style type="text/css">
	.st0{fill-rule:evenodd;clip-rule:evenodd;fill:url(#SVGID_1_);}
	.st1{fill-rule:evenodd;clip-rule:evenodd;fill:url(#SVGID_00000126303707218878857550000014948618791473538475_);}
	.st2{fill-rule:evenodd;clip-rule:evenodd;fill:url(#SVGID_00000083074323918477627680000005016389746342617229_);}
	.st3{fill-rule:evenodd;clip-rule:evenodd;fill:url(#SVGID_00000026865798847579138200000008198078197154376582_);}
	.st4{fill-rule:evenodd;clip-rule:evenodd;fill:url(#SVGID_00000094590242847708139460000011807672117343552139_);}
	.st5{fill-rule:evenodd;clip-rule:evenodd;fill:url(#SVGID_00000121968345677915294200000014852627144640956840_);}
	.st6{fill-rule:evenodd;clip-rule:evenodd;fill:url(#SVGID_00000015321314363765455290000014870709231606471863_);}
	.st7{fill-rule:evenodd;clip-rule:evenodd;fill:url(#SVGID_00000095314523044818156800000011896055953929186975_);}
	.st8{fill-rule:evenodd;clip-rule:evenodd;fill:#FFFFFF;}
	.st9{fill-rule:evenodd;clip-rule:evenodd;fill:url(#SVGID_00000002348776958091490700000008973705845438065030_);}
	.st10{fill-rule:evenodd;clip-rule:evenodd;fill:url(#SVGID_00000157278847031083311060000004283365170237742229_);}
	.st11{fill-rule:evenodd;clip-rule:evenodd;fill:url(#SVGID_00000039091967254676333480000010043918855832425635_);}
	.st12{fill-rule:evenodd;clip-rule:evenodd;fill:url(#SVGID_00000067931442410888413080000003027397957732154032_);}
	.st13{fill-rule:evenodd;clip-rule:evenodd;fill:#9E1A16;}
	.st14{fill-rule:evenodd;clip-rule:evenodd;fill:url(#SVGID_00000107584405080054846490000011718940737980654213_);}
	.st15{fill-rule:evenodd;clip-rule:evenodd;fill:url(#SVGID_00000084517161759316468530000009737196156843692440_);}
	.st16{fill-rule:evenodd;clip-rule:evenodd;fill:url(#SVGID_00000060721840023374812460000004971216503557062809_);}
	.st17{fill-rule:evenodd;clip-rule:evenodd;fill:url(#SVGID_00000045599208962822640490000015902671494601123723_);}
	.st18{fill:#010202;}
</style>
<linearGradient id="SVGID_1_" gradientUnits="userSpaceOnUse" x1="295.4362" y1="98.3489" x2="272.6812" y2="138.5242" gradientTransform="matrix(1 0 0 -1 -120.9449 379.3622)">
	<stop  offset="0" style="stop-color:#EE7558"/>
	<stop  offset="0.41" style="stop-color:#E52C20"/>
	<stop  offset="0.99" style="stop-color:#991914"/>
	<stop  offset="1" style="stop-color:#991914"/>
</linearGradient>
<path class="st0" d="M187.6,185.4l-24.3,49.2l-61.6,36.6l79.7-5.4L187.6,185.4z"/>
<linearGradient id="SVGID_00000149349224468433694720000009616154147943062413_" gradientUnits="userSpaceOnUse" x1="306.7721" y1="132.0985" x2="277.4458" y2="151.7779" gradientTransform="matrix(1 0 0 -1 -120.9449 379.3622)">
	<stop  offset="0" style="stop-color:#871811"/>
	<stop  offset="0.99" style="stop-color:#911913"/>
	<stop  offset="1" style="stop-color:#911913"/>
</linearGradient>
<path style="fill-rule:evenodd;clip-rule:evenodd;fill:url(#SVGID_00000149349224468433694720000009616154147943062413_);" d="
	M156.1,243.1l25.5,22.7l-6.9-47.3L156.1,243.1z"/>
<linearGradient id="SVGID_00000008119388271748415770000011445460341062615184_" gradientUnits="userSpaceOnUse" x1="283.308" y1="97.1316" x2="253.9828" y2="116.8104" gradientTransform="matrix(1 0 0 -1 -120.9449 379.3622)">
	<stop  offset="0" style="stop-color:#871811"/>
	<stop  offset="0.99" style="stop-color:#911913"/>
	<stop  offset="1" style="stop-color:#911913"/>
</linearGradient>
<path style="fill-rule:evenodd;clip-rule:evenodd;fill:url(#SVGID_00000008119388271748415770000011445460341062615184_);" d="
	M102,271.1l79.7-5.4l-50.2-3.9L102,271.1z"/>
<linearGradient id="SVGID_00000074440923835808773860000002047299179131347590_" gradientUnits="userSpaceOnUse" x1="221.735" y1="146.3439" x2="226.2813" y2="116.7979" gradientTransform="matrix(1 0 0 -1 -120.9449 379.3622)">
	<stop  offset="0" style="stop-color:#FFFFFF"/>
	<stop  offset="0.23" style="stop-color:#E57352"/>
	<stop  offset="0.46" style="stop-color:#DE3B1F"/>
	<stop  offset="0.99" style="stop-color:#A71916"/>
	<stop  offset="1" style="stop-color:#A71916"/>
</linearGradient>
<path style="fill-rule:evenodd;clip-rule:evenodd;fill:url(#SVGID_00000074440923835808773860000002047299179131347590_);" d="
	M87,235.9l15.1,35.2l12.5-41.1L87,235.9z"/>
<linearGradient id="SVGID_00000103963542169628352000000010814098178470882220_" gradientUnits="userSpaceOnUse" x1="253.0047" y1="173.9324" x2="254.6797" y2="143.7789" gradientTransform="matrix(1 0 0 -1 -120.9449 379.3622)">
	<stop  offset="0" style="stop-color:#FFFFFF"/>
	<stop  offset="0.23" style="stop-color:#E4714D"/>
	<stop  offset="0.56" style="stop-color:#BF1C18"/>
	<stop  offset="0.99" style="stop-color:#A81916"/>
	<stop  offset="1" style="stop-color:#A81916"/>
</linearGradient>
<path style="fill-rule:evenodd;clip-rule:evenodd;fill:url(#SVGID_00000103963542169628352000000010814098178470882220_);" d="
	M111.5,229l44.6,14.2L144.5,198L111.5,229z"/>
<linearGradient id="SVGID_00000129896561946498505440000014496108680222219196_" gradientUnits="userSpaceOnUse" x1="280.7538" y1="201.8037" x2="285.7685" y2="180.1929" gradientTransform="matrix(1 0 0 -1 -120.9449 379.3622)">
	<stop  offset="0" style="stop-color:#FFFFFF"/>
	<stop  offset="0.18" style="stop-color:#E56242"/>
	<stop  offset="0.4" style="stop-color:#C92518"/>
	<stop  offset="0.99" style="stop-color:#A81916"/>
	<stop  offset="1" style="stop-color:#A81916"/>
</linearGradient>
<path style="fill-rule:evenodd;clip-rule:evenodd;fill:url(#SVGID_00000129896561946498505440000014496108680222219196_);" d="
	M145.1,201.3l39.9-2.6l-31.2-25.5L145.1,201.3z"/>
<linearGradient id="SVGID_00000079470071811695422950000000527531830961783438_" gradientUnits="userSpaceOnUse" x1="265.4406" y1="209.414" x2="287.0498" y2="220.2186" gradientTransform="matrix(1 0 0 -1 -120.9449 379.3622)">
	<stop  offset="0" style="stop-color:#FFFFFF"/>
	<stop  offset="0.54" style="stop-color:#C82218"/>
	<stop  offset="0.99" style="stop-color:#BF1818"/>
	<stop  offset="1" style="stop-color:#BF1818"/>
</linearGradient>
<path style="fill-rule:evenodd;clip-rule:evenodd;fill:url(#SVGID_00000079470071811695422950000000527531830961783438_);" d="
	M140.4,163.9l29.9,0.1L152,174.2L140.4,163.9z"/>
<linearGradient id="SVGID_00000072977455659891096360000007989118440324241582_" gradientUnits="userSpaceOnUse" x1="202.7933" y1="153.876" x2="204.5718" y2="136.0696" gradientTransform="matrix(1 0 0 -1 -120.9449 379.3622)">
	<stop  offset="0" style="stop-color:#FFFFFF"/>
	<stop  offset="0.31" style="stop-color:#DF3F23"/>
	<stop  offset="0.99" style="stop-color:#C01A18"/>
	<stop  offset="1" style="stop-color:#C01A18"/>
</linearGradient>
<path style="fill-rule:evenodd;clip-rule:evenodd;fill:url(#SVGID_00000072977455659891096360000007989118440324241582_);" d="
	M81.2,219l-1.5,30.7l7.7-14L81.2,219z"/>
<path class="st8" d="M80.8,218.5l6.3,17.8l27.2-6.1l31.1-28.9l8.8-27.8l-13.8-9.7l-23.5,8.8c-7.4,6.9-21.7,20.5-22.3,20.7
	C94,193.4,85.1,210.4,80.8,218.5z"/>
<linearGradient id="SVGID_00000073717180811439664460000017162167429995415432_" gradientUnits="userSpaceOnUse" x1="190.5659" y1="131.2564" x2="274.1727" y2="217.2271" gradientTransform="matrix(1 0 0 -1 -120.9449 379.3622)">
	<stop  offset="0" style="stop-color:#BD1818"/>
	<stop  offset="7.000000e-02" style="stop-color:#FFFFFF"/>
	<stop  offset="0.17" style="stop-color:#FFFFFF"/>
	<stop  offset="0.27" style="stop-color:#C8301D"/>
	<stop  offset="0.33" style="stop-color:#821810"/>
	<stop  offset="0.46" style="stop-color:#A31A16"/>
	<stop  offset="0.72" style="stop-color:#B21917"/>
	<stop  offset="0.99" style="stop-color:#E52B14"/>
	<stop  offset="1" style="stop-color:#E52B14"/>
</linearGradient>
<path style="fill-rule:evenodd;clip-rule:evenodd;fill:url(#SVGID_00000073717180811439664460000017162167429995415432_);" d="
	M102.8,186.6c16-15.9,36.7-25.3,44.6-17.3c7.9,8-0.5,27.4-16.5,43.3c-16,15.9-36.4,25.8-44.3,17.8
	C78.6,222.4,86.7,202.4,102.8,186.6z"/>
<linearGradient id="SVGID_00000109749852831778173120000010293262491705211274_" gradientUnits="userSpaceOnUse" x1="254.6061" y1="122.584" x2="229.423" y2="128.7998" gradientTransform="matrix(1 0 0 -1 -120.9449 379.3622)">
	<stop  offset="0" style="stop-color:#8C1812"/>
	<stop  offset="0.54" style="stop-color:#991915"/>
	<stop  offset="0.99" style="stop-color:#A91917"/>
	<stop  offset="1" style="stop-color:#A91917"/>
</linearGradient>
<path style="fill-rule:evenodd;clip-rule:evenodd;fill:url(#SVGID_00000109749852831778173120000010293262491705211274_);" d="
	M102,271.1l12.4-41.2l41.3,13.3C140.9,257.2,124.3,269,102,271.1z"/>
<linearGradient id="SVGID_00000005248852578177542550000003865481245172788098_" gradientUnits="userSpaceOnUse" x1="297.8606" y1="152.8094" x2="275.4886" y2="172.8607" gradientTransform="matrix(1 0 0 -1 -120.9449 379.3622)">
	<stop  offset="0" style="stop-color:#7D1710"/>
	<stop  offset="0.99" style="stop-color:#9E1915"/>
	<stop  offset="1" style="stop-color:#9E1915"/>
</linearGradient>
<path style="fill-rule:evenodd;clip-rule:evenodd;fill:url(#SVGID_00000005248852578177542550000003865481245172788098_);" d="
	M145.4,201.2l10.6,42c12.5-13.1,23.7-27.2,29.2-44.7L145.4,201.2z"/>
<linearGradient id="SVGID_00000098211584612737788170000015867954768578324668_" gradientUnits="userSpaceOnUse" x1="306.0798" y1="189.5996" x2="294.9357" y2="201.5132" gradientTransform="matrix(1 0 0 -1 -120.9449 379.3622)">
	<stop  offset="0" style="stop-color:#791711"/>
	<stop  offset="0.99" style="stop-color:#9E1A16"/>
	<stop  offset="1" style="stop-color:#9E1A16"/>
</linearGradient>
<path style="fill-rule:evenodd;clip-rule:evenodd;fill:url(#SVGID_00000098211584612737788170000015867954768578324668_);" d="
	M185,198.7c4.2-12.8,5.2-31.2-14.8-34.6l-16.4,9.1L185,198.7z"/>
<path class="st13" d="M79.7,249.5c0.6,21.2,15.8,21.5,22.3,21.7l-15-35.1L79.7,249.5z"/>
<radialGradient id="SVGID_00000137827061461243218060000017504115332605840556_" cx="50.5278" cy="400.2158" r="5.1682" gradientTransform="matrix(5.3047 0 0 -5.3047 -110.0063 2329.9019)" gradientUnits="userSpaceOnUse">
	<stop  offset="0" style="stop-color:#A81916"/>
	<stop  offset="0.99" style="stop-color:#7D1710"/>
	<stop  offset="1" style="stop-color:#7D1710"/>
</radialGradient>
<path style="fill-rule:evenodd;clip-rule:evenodd;fill:url(#SVGID_00000137827061461243218060000017504115332605840556_);" d="
	M145.4,201.2c9.6,5.9,28.9,17.7,29.3,18c0.6,0.3,8.3-13,10.1-20.6L145.4,201.2z"/>
<radialGradient id="SVGID_00000098938336055145867480000013323548505478719360_" cx="33.9145" cy="408.6662" r="5.1682" gradientTransform="matrix(7.0519 0 0 -7.0519 -119.0998 3124.8706)" gradientUnits="userSpaceOnUse">
	<stop  offset="0" style="stop-color:#A31916"/>
	<stop  offset="0.99" style="stop-color:#801810"/>
	<stop  offset="1" style="stop-color:#801810"/>
</radialGradient>
<path style="fill-rule:evenodd;clip-rule:evenodd;fill:url(#SVGID_00000098938336055145867480000013323548505478719360_);" d="
	M114.5,229.9l16.6,32.1c9.8-5.3,17.5-11.8,24.6-18.8L114.5,229.9z"/>
<linearGradient id="SVGID_00000155122677330584627240000000681564105234823810_" gradientUnits="userSpaceOnUse" x1="215.1879" y1="108.2643" x2="206.1064" y2="139.0749" gradientTransform="matrix(1 0 0 -1 -120.9449 379.3622)">
	<stop  offset="0" style="stop-color:#8B2114"/>
	<stop  offset="0.43" style="stop-color:#9E1A16"/>
	<stop  offset="0.99" style="stop-color:#B31917"/>
	<stop  offset="1" style="stop-color:#B31917"/>
</linearGradient>
<path style="fill-rule:evenodd;clip-rule:evenodd;fill:url(#SVGID_00000155122677330584627240000000681564105234823810_);" d="
	M87,236.2l-2.4,28.1c4.4,6.1,10.6,6.6,17,6.1C97,258.8,87.7,235.7,87,236.2z"/>
<linearGradient id="SVGID_00000023260890814818778230000011480167524222643850_" gradientUnits="userSpaceOnUse" x1="284.8569" y1="210.3634" x2="305.2169" y2="201.3761" gradientTransform="matrix(1 0 0 -1 -120.9449 379.3622)">
	<stop  offset="0" style="stop-color:#B31917"/>
	<stop  offset="0.44" style="stop-color:#911913"/>
	<stop  offset="0.99" style="stop-color:#791C13"/>
	<stop  offset="1" style="stop-color:#791C13"/>
</linearGradient>
<path style="fill-rule:evenodd;clip-rule:evenodd;fill:url(#SVGID_00000023260890814818778230000011480167524222643850_);" d="
	M153.7,173.3l33.1,4.6c-1.8-7.5-7.2-12.3-16.4-13.8L153.7,173.3z"/>
<path class="st18" d="M314.3,259.9h-23.7c-5.3-8.2-10-15.4-14.3-21.4c-4.2-6-8.8-12.2-13.8-18.6h-9v28c0,1.5,0.2,2.7,0.7,3.9
	c0.5,1.1,1.4,1.9,2.9,2.5c0.7,0.3,2.1,0.6,3.9,0.8c1.9,0.2,3.4,0.4,4.7,0.4v4.4h-37.3v-4.4c1-0.1,2.4-0.2,4.3-0.4
	c1.9-0.2,3.2-0.5,4-0.8c1.2-0.5,2.1-1.3,2.7-2.4c0.6-1,0.9-2.4,0.9-4v-63.8c0-1.5-0.2-2.7-0.6-3.9c-0.4-1.1-1.4-2-2.9-2.5
	c-1-0.4-2.4-0.7-4-1c-1.7-0.3-3.1-0.5-4.2-0.6v-4.4h40.7c3.7,0,7.2,0.4,10.5,1.2c3.3,0.7,6.2,2,8.9,3.7c2.6,1.7,4.6,3.8,6.2,6.5
	c1.5,2.7,2.3,5.9,2.3,9.6c0,3.4-0.5,6.4-1.6,9c-1,2.6-2.6,4.9-4.6,6.8c-1.9,1.8-4.1,3.3-6.7,4.7c-2.6,1.3-5.5,2.4-8.6,3.3
	c4.4,5.8,8,10.6,10.8,14.5c2.9,3.9,6.4,8.7,10.6,14.4c1.8,2.5,3.5,4.3,4.9,5.5c1.5,1.2,3,2.1,4.4,2.9c1.1,0.5,2.4,1,4,1.2
	c1.6,0.3,3,0.5,4,0.5V259.9z M281.6,194.2c0-5.3-1.5-9.6-4.6-12.7c-3.1-3.1-7.4-4.7-13-4.7h-10.6v37.9h8.1c5.7,0,10.5-1.8,14.3-5.5
	C279.7,205.5,281.6,200.5,281.6,194.2z"/>
<path class="st18" d="M381.7,258.8l-20,1.4l-0.9-0.9v-7.8h-0.4c-1,1-2.1,2.2-3.4,3.4c-1.2,1.2-2.7,2.2-4.3,3.2
	c-1.9,1.1-3.7,2-5.4,2.5c-1.7,0.6-4.2,0.9-7.4,0.9c-5.4,0-9.6-1.8-12.4-5.3c-2.8-3.6-4.2-8.7-4.2-15.5v-29.3c0-1.5-0.3-2.7-0.9-3.7
	c-0.5-1-1.3-1.9-2.4-2.7c-0.7-0.5-1.7-0.8-2.8-1.1c-1.1-0.2-2.3-0.4-3.5-0.5v-4l20.4-1.5l0.9,0.9v42.6c0,4.4,1,7.8,3,10
	c2,2.2,4.4,3.4,7.1,3.4c2.3,0,4.3-0.4,6.1-1.1c1.8-0.7,3.3-1.5,4.5-2.5c1.1-0.9,2.1-1.8,2.9-2.7c0.9-1,1.5-1.9,2-2.7V211
	c0-1.4-0.3-2.6-0.9-3.6c-0.6-1.1-1.4-2-2.4-2.7c-0.7-0.5-1.9-0.8-3.4-0.9c-1.5-0.1-3.1-0.2-4.9-0.3v-4l22.3-1.5l0.9,0.9v48.7
	c0,1.4,0.3,2.6,0.9,3.6c0.6,1,1.4,1.8,2.4,2.5c0.7,0.5,1.6,0.8,2.7,0.9c1,0.1,2.2,0.2,3.4,0.2V258.8"/>
<path class="st18" d="M451.6,229.2c0,9.2-2.9,16.9-8.7,23.2c-5.8,6.3-12.5,9.4-20.2,9.4c-3.4,0-6.7-0.5-9.9-1.6
	c-3.2-1-6.3-2.4-9.1-4.2l-4.6,7.1l-3.9-0.9c0.2-3.1,0.4-6.8,0.4-11.1c0.1-4.3,0.1-8.5,0.1-12.5v-60.7c0-1.4-0.3-2.8-1-4.2
	c-0.6-1.4-1.4-2.4-2.4-3c-0.8-0.5-2.1-0.9-4-1.2c-1.8-0.3-3.3-0.5-4.4-0.6v-4l22.5-1.4l0.9,0.9v40.4l0.4,0.1
	c2.6-2.7,5.4-4.8,8.4-6.2c3.1-1.4,6.1-2.1,9-2.1c7.5,0,13.8,3,18.9,9C449,211.9,451.6,219.7,451.6,229.2L451.6,229.2z M438.6,229.7
	c0-3.1-0.3-6.2-1-9.4c-0.7-3.2-1.7-6-3.1-8.3c-1.4-2.4-3.3-4.4-5.5-5.8c-2.3-1.5-5-2.2-8.2-2.2c-2.9,0-5.4,0.6-7.6,1.7
	c-2.2,1.1-4.1,2.7-5.8,4.6v35.7c0.2,1,0.7,2.2,1.4,3.5c0.7,1.3,1.7,2.6,3,3.8c1.2,1.2,2.7,2.1,4.2,2.9c1.6,0.7,3.5,1.1,5.8,1.1
	c5.1,0,9.1-2.4,12.2-7.3C437,244.9,438.6,238.2,438.6,229.7z"/>
<path class="st18" d="M456,280c0-2.1,0.6-3.8,1.7-5.1c1.2-1.3,2.6-1.9,4.3-1.9c1.3,0,2.5,0.2,3.4,0.7c1,0.5,1.8,1.1,2.5,1.9
	c0.6,0.6,1.3,1.5,2,2.5c0.7,1.1,1.3,2,1.7,2.7c2.1-1.1,4.5-4,7.4-8.8c2.9-4.7,5-8.9,6.3-12.4c-3.9-9.8-7.5-18.6-10.7-26.4
	c-3.2-7.7-6.5-15.8-10-24.1c-0.8-1.9-2.1-3.4-4-4.4c-1.9-1.1-3.7-1.8-5.6-2.1v-4.1h28v4.4c-1.2,0-2.7,0.3-4.5,0.8
	c-1.7,0.5-2.6,1.1-2.6,1.9c0,0,0.1,0.3,0.3,0.9c0.2,0.6,0.5,1.2,0.6,1.8c1.6,4.1,4,10,7.2,17.8c3.2,7.7,5.7,13.9,7.5,18.5
	c1.9-4.4,3.8-9,5.8-13.7c2-4.8,4.3-10.4,6.8-16.8c0.3-0.8,0.7-1.9,1.2-3.2c0.5-1.4,0.8-2.6,0.8-3.6c0-1.1-1-2.1-2.9-3
	c-1.9-1-3.6-1.5-5.3-1.7v-4h22.7v3.9c-1.2,0.2-2.9,0.9-4.9,2.2c-2,1.2-3.5,2.9-4.5,5.2c-4.9,11.4-9.3,21.9-13.2,31.3
	c-3.8,9.4-6.7,16.3-8.7,20.8c-2.6,5.8-5,10.3-7,13.5c-2,3.3-4,5.8-6,7.7c-1.9,1.7-3.6,2.9-5.2,3.5c-1.5,0.6-3.1,0.9-4.8,0.9
	c-3.2,0-5.8-0.8-7.6-2.3C457,283.7,456,281.9,456,280"/>
</svg>
